<?xml version="1.0" encoding="UTF-8" standalone="no"?>
<!-- Created with Inkscape (http://www.inkscape.org/) -->

<svg
   width="210mm"
   height="297mm"
   viewBox="0 0 210 297"
   version="1.1"
   id="svg126360"
   inkscape:version="1.1 (c68e22c387, 2021-05-23)"
   sodipodi:docname="appendix1.svg"
   xmlns:inkscape="http://www.inkscape.org/namespaces/inkscape"
   xmlns:sodipodi="http://sodipodi.sourceforge.net/DTD/sodipodi-0.dtd"
   xmlns="http://www.w3.org/2000/svg"
   xmlns:svg="http://www.w3.org/2000/svg">
  <sodipodi:namedview
     id="namedview126362"
     pagecolor="#ffffff"
     bordercolor="#999999"
     borderopacity="1"
     inkscape:pageshadow="0"
     inkscape:pageopacity="0"
     inkscape:pagecheckerboard="0"
     inkscape:document-units="mm"
     showgrid="false"
     inkscape:object-paths="false"
     inkscape:snap-nodes="true"
     inkscape:snap-intersection-paths="false"
     inkscape:object-nodes="false"
     inkscape:zoom="1.0998546"
     inkscape:cx="406.87196"
     inkscape:cy="383.23247"
     inkscape:window-width="1284"
     inkscape:window-height="1081"
     inkscape:window-x="4382"
     inkscape:window-y="200"
     inkscape:window-maximized="0"
     inkscape:current-layer="layer1" />
  <defs
     id="defs126357">
    <marker
       style="overflow:visible;"
       id="marker173264"
       refX="0.0"
       refY="0.0"
       orient="auto"
       inkscape:stockid="Arrow2Lend"
       inkscape:isstock="true">
      <path
         transform="scale(1.1) rotate(180) translate(1,0)"
         d="M 8.7185878,4.0337352 L -2.2072895,0.016013256 L 8.7185884,-4.0017078 C 6.9730900,-1.6296469 6.9831476,1.6157441 8.7185878,4.0337352 z "
         style="fill-rule:evenodd;fill:context-stroke;stroke-width:0.62500000;stroke-linejoin:round;"
         id="path173262" />
    </marker>
    <marker
       style="overflow:visible;"
       id="Arrow2Lend"
       refX="0.0"
       refY="0.0"
       orient="auto"
       inkscape:stockid="Arrow2Lend"
       inkscape:isstock="true">
      <path
         transform="scale(1.1) rotate(180) translate(1,0)"
         d="M 8.7185878,4.0337352 L -2.2072895,0.016013256 L 8.7185884,-4.0017078 C 6.9730900,-1.6296469 6.9831476,1.6157441 8.7185878,4.0337352 z "
         style="fill-rule:evenodd;fill:context-stroke;stroke-width:0.62500000;stroke-linejoin:round;"
         id="path173007" />
    </marker>
    <marker
       style="overflow:visible"
       id="TriangleOutL"
       refX="0.0"
       refY="0.0"
       orient="auto"
       inkscape:stockid="TriangleOutL"
       inkscape:isstock="true">
      <path
         transform="scale(0.8)"
         style="fill-rule:evenodd;fill:context-stroke;stroke:context-stroke;stroke-width:1.0pt"
         d="M 5.77,0.0 L -2.88,5.0 L -2.88,-5.0 L 5.77,0.0 z "
         id="path173128" />
    </marker>
    <clipPath
       clipPathUnits="userSpaceOnUse"
       id="clipPath130632">
      <path
         id="path130634"
         style="fill:none;stroke:#000000;stroke-width:0.465;stroke-miterlimit:4;stroke-dasharray:none"
         d="M 95.078434,74.515866 V 116.2513 H 136.07335 V 74.515866 Z m 20.487636,14.097331 c 0.0657,0.0011 0.11931,0.02246 0.14934,0.08268 0.24892,0.498787 0.39673,0.860065 0.46458,1.145665 0.6199,0.385392 1.3056,0.889389 0.94102,0.05374 -0.0581,-0.133085 -0.0865,-0.28362 -0.17414,-0.39946 -0.0561,-0.0742 -0.33032,-0.137326 -0.23772,-0.145727 0.009,-7.94e-4 0.0187,-0.0011 0.0279,-0.0011 0.57712,0.0082 0.74945,1.929551 0.75241,0.907955 -0.55037,-1.005711 0.16442,0.166341 0.35863,0.284736 0.0826,0.168162 0.17553,0.331417 0.24753,0.504362 0.0752,0.180528 -0.11297,0.02933 0.0305,0.26665 0.0745,0.12319 0.19232,0.21491 0.27492,0.332796 0.1546,0.220636 0.22761,0.328131 0.28163,0.420129 0.87373,0.178644 1.06886,0.916432 0.58705,1.346171 0.29481,0.658688 0.58352,1.320945 0.71727,2.031402 0.0295,0.231484 0.0688,0.462002 0.0884,0.694531 0.0335,0.396936 0.0159,0.79629 0.0336,1.194242 0.0311,0.698373 0.0649,0.756354 0.0506,1.544608 -0.003,0.194739 -0.0283,0.388652 -0.0424,0.582912 -0.05,0.290854 -0.0811,0.585311 -0.14986,0.872291 -0.0343,0.1432 -0.0995,0.27728 -0.15813,0.41238 -0.26477,0.61041 -0.62058,1.15958 -0.95343,1.73375 -0.20444,0.18309 -0.3914,0.38744 -0.6134,0.5488 -0.0773,0.0562 -0.1794,0.0678 -0.2713,0.0941 -0.35041,0.10017 -0.69117,0.14347 -1.05058,0.19017 -0.27001,-0.0993 -0.54071,-0.19576 -0.80977,-0.29766 -0.0361,-0.0136 -0.55848,-0.55989 -0.59428,-0.51779 -0.10438,-0.10919 -0.21566,-0.2123 -0.31316,-0.32763 -0.0146,-0.0171 -0.0126,-0.0431 -0.0186,-0.0646 -0.0737,-0.0753 -0.14748,-0.15052 -0.22118,-0.22582 -0.13435,-0.0958 -0.28739,-0.1627 -0.43304,-0.2403 -0.18822,-0.10027 -0.23601,-0.12314 -0.32711,-0.17053 -0.69849,0.0214 -1.39262,-0.0211 -2.05156,-0.30128 -0.45643,-0.19408 -0.63416,-0.63942 -0.89917,-1.02681 -0.0114,-0.087 -0.0208,-0.172945 -0.0284,-0.258376 -2.30556,-1.154491 1.91404,1.106976 -1.55856,-0.720371 -0.0878,-0.04621 -0.1724,-0.09788 -0.25632,-0.150894 -0.0781,2.38e-4 -0.15594,1.35e-4 -0.23254,-0.01344 -0.0455,-0.0081 -0.0909,-0.01775 -0.13591,-0.02791 -0.14288,0.0767 -0.26272,0.136748 -0.16381,0.08165 -1.27487,0.483494 -2.23006,0.752671 -3.5941,0.336412 -0.0712,-0.04507 -0.15562,-0.07401 -0.21342,-0.135392 -0.023,-0.02442 0.0213,-0.08449 -0.008,-0.100254 -0.29532,-0.157302 -0.72549,-0.124817 -0.92242,-0.395324 -0.60769,-0.834705 0.30329,-1.614239 0.73122,-2.15129 2.1e-4,-2.01e-4 2.7e-4,-2.65e-4 5.3e-4,-5.29e-4 -0.23142,-0.205743 -0.44326,-0.435475 -0.62735,-0.698148 -0.0979,-0.225973 -0.20404,-0.448736 -0.29404,-0.677995 -0.0304,-0.07752 -0.007,-0.166402 -0.0171,-0.249082 -0.0424,-0.354801 -0.10111,-0.712197 -0.0114,-1.066601 0.0598,-0.176543 0.10262,-0.359826 0.17932,-0.529683 0.35628,-0.788551 1.34888,-1.28729 2.10478,-1.575096 0.34954,-0.130604 0.70119,-0.255984 1.05419,-0.37724 0.034,-0.220658 0.0803,-0.43892 0.14832,-0.648539 -0.0663,-0.116007 -0.1377,-0.227473 -0.22118,-0.328144 -0.005,-0.0056 -0.0115,-0.0089 -0.0202,-0.01035 -0.0509,0.015 -0.10142,0.03054 -0.1509,0.04961 -0.0478,0.01842 0.0906,-0.05986 0.1509,-0.04961 0.0643,-0.01897 0.12919,-0.03655 0.19327,-0.05633 0.0874,-0.03494 0.17539,-0.06993 0.26303,-0.104902 0.004,-0.0066 0.007,-0.01352 0.0108,-0.02016 0.099,-0.173619 0.33385,-0.180361 0.55397,-0.202573 1.27881,-0.495496 2.59346,-0.926653 3.97754,-0.924491 0.96178,-0.180869 1.9271,-0.333155 2.90473,-0.412377 0.14754,-0.01196 0.35208,-0.110255 0.49661,-0.108003 z m 0.894,2.795693 c -0.017,0.01336 -0.0353,0.02612 -0.0537,0.03876 0.0177,0.03206 0.0407,0.0718 0.0238,0.05581 -0.0151,-0.01429 -0.0292,-0.02833 -0.0434,-0.04237 -0.20878,0.135964 -0.50377,0.224274 -0.88677,0.224274 -0.14008,0 -0.28023,-0.0052 -0.42012,-0.0016 -0.1598,0.115507 -0.32022,0.229931 -0.48215,0.342099 h 1.25316 0.76842 c -0.0266,-0.06673 -0.0469,-0.117227 -0.0879,-0.222208 -0.0797,-0.204486 -0.074,-0.33483 -0.0713,-0.394809 z m -5.0524,0.643372 c -1.57345,0.307403 -3.10698,0.783571 -4.60592,1.346689 -0.28246,0.112739 -1.31699,0.491821 -1.23869,0.956014 0.0217,0.213328 0.0608,0.422926 0.078,0.637169 0.004,0.05364 -0.044,0.149178 0.008,0.161232 0.0505,0.01159 0.0242,-0.101052 0.0362,-0.151413 0.12607,0.162883 0.26717,0.303649 0.42013,0.427882 0.25339,-0.21236 0.55599,-0.443426 1.00511,-0.764813 0.43292,-0.30979 0.90326,-0.563441 1.35702,-0.841809 0.97522,-0.598257 1.96178,-1.177933 2.93987,-1.770951 z m 0.67644,1.582332 c -0.90884,0.549418 -1.82589,1.085864 -2.7311,1.641245 -0.44987,0.276014 -0.91658,0.527728 -1.34565,0.835091 -0.0818,0.05859 -0.13178,0.09911 -0.20361,0.151927 0.71871,0.300852 1.40783,0.662688 2.0867,1.050067 0.82347,0.0083 1.64842,-0.04484 2.47116,-0.01394 0.21737,0.467662 0.49726,0.910608 0.65216,1.402498 0.0184,0.05836 -0.0187,0.112903 -0.0568,0.168465 0.0654,0.05246 -0.20265,-0.04893 0.60254,0.402559 0.20805,0.11666 0.4269,0.213275 0.64027,0.319878 0.1093,0.04773 0.21931,0.09709 0.32918,0.145728 0.26442,-0.01077 0.5289,-0.02323 0.79427,-0.03772 0.37253,-0.132852 0.7691,-0.01807 1.15394,-0.01963 0.0473,-0.01974 0.10072,-0.04031 0.16743,-0.06356 0.0526,-0.01834 0.10799,-0.08056 0.15761,-0.05529 0.0364,0.01855 -0.0342,0.09023 -0.0744,0.09767 -0.0826,0.01529 -0.16649,0.02085 -0.25063,0.02119 -0.87602,0.365118 1.41687,0.162621 1.66294,0.624248 0.0425,-0.0855 0.0835,-0.17262 0.12093,-0.26406 0.0421,-0.102836 0.0935,-0.203367 0.11627,-0.312129 0.0358,-0.170741 0.0386,-0.347001 0.0579,-0.52038 0.009,-0.149185 0.0269,-0.29805 0.0279,-0.447519 0.005,-0.69438 -0.0238,-0.706125 -0.0517,-1.329634 -0.0188,-0.420259 -7.9e-4,-0.842746 -0.0362,-1.261938 -0.0141,-0.167138 -0.049,-0.331703 -0.0734,-0.497645 -0.16587,-0.675206 -0.46493,-1.308827 -0.74982,-1.9451 h -1.70119 -3.15743 c -0.23666,0 -0.43913,-0.03424 -0.60927,-0.09198 z m -5.73247,3.891754 c -0.0913,0.09192 -0.17384,0.17494 -0.28473,0.285769 -0.0109,0.01371 -0.0221,0.02719 -0.0331,0.04082 0.0441,0.0264 0.10067,0.05983 0.12816,0.07596 0.32882,0.0067 0.64804,-0.03579 0.9617,-0.105936 -0.25332,-0.106633 -0.51045,-0.205796 -0.77205,-0.296622 z m -0.68574,0.784963 c -0.0207,0.02728 -0.0419,0.05442 -0.062,0.08217 -0.23382,0.322109 0.0275,0.252195 0.062,-0.08217 z m 2.70164,0.494028 c -0.0913,-0.0086 0.39491,0.154545 0.56999,0.144176 0.006,-2.64e-4 0.0118,-0.0013 0.0176,-0.0021 -0.18703,-0.04602 -0.37208,-0.101643 -0.56121,-0.137978 -0.0115,-0.0021 -0.0203,-0.0036 -0.0263,-0.0041 z m 9.51053,1.978171 c -0.1351,0.11985 -0.25574,0.26184 -0.41496,0.34572 -0.22024,0.11599 -0.44682,0.17638 -0.67696,0.21084 0.0982,0.0725 0.19398,0.14992 0.28577,0.23254 0.22999,-0.0313 0.57861,-0.0847 0.60668,-0.15038 0.0177,-0.0414 -0.087,-0.021 -0.13074,-0.0315 0.10203,-0.21433 0.21645,-0.4106 0.33021,-0.6072 z" />
    </clipPath>
    <clipPath
       clipPathUnits="userSpaceOnUse"
       id="clipPath130858">
      <path
         id="path130860"
         style="fill:none;stroke:#000000;stroke-width:0.465;stroke-miterlimit:4;stroke-dasharray:none"
         d="m 90.23015,81.895259 v 51.900191 h 27.06553 v -22.06222 c -0.0781,0.0175 -0.16374,0.0313 -0.24908,0.0413 -0.0269,0.5967 -0.7229,0.64658 -0.85886,-0.0889 -0.0129,-0.0711 -0.0354,-0.17911 -0.0274,-0.26924 -0.21753,-0.10907 -0.28071,-0.43427 0.0186,-0.76584 -0.2629,-0.0623 -0.47388,-0.17446 -0.50695,-0.48679 -0.18186,0.14007 -0.30516,0.18752 -0.20515,-0.0977 0.058,-0.16528 0.0556,-0.36717 0.17415,-0.4961 0.004,-0.004 0.009,-0.008 0.0129,-0.0114 -0.22419,-0.0747 -0.34489,-0.38236 -0.11524,-0.78445 0.0238,-0.0416 0.047,-0.0833 0.0703,-0.12506 -0.10816,-0.17472 -0.21746,-0.34868 -0.32298,-0.52503 -0.001,-0.003 0.006,-0.002 0.008,-0.005 0.01,-0.0158 0.0203,-0.0318 0.0253,-0.0496 0.0494,-0.17553 0.0586,-0.36415 0.15658,-0.52452 0.0734,-0.0871 0.14718,-0.17389 0.22065,-0.26096 -0.008,0.0112 -0.0177,0.0212 -0.0212,0.0346 -0.007,0.0301 -0.0323,0.11137 -0.007,0.093 0.007,-0.005 0.0182,-0.0599 0.03,-0.12919 h -5.3e-4 l -5.3e-4,5.3e-4 c 0.0247,-0.14511 0.0536,-0.36166 0.0641,-0.37776 0.0698,-0.13032 0.13021,-0.2666 0.20981,-0.39119 0.009,-0.0146 0.0227,-0.0249 0.0377,-0.0341 2e-5,-0.022 -0.002,-0.0442 -0.002,-0.0661 0,-0.23867 5e-5,-0.47757 0,-0.71624 0,-0.28929 1.8e-4,-0.57837 0,-0.86764 0,-0.20441 -0.001,-0.40898 0.002,-0.6134 0.001,-0.25974 -0.015,-0.51929 -0.003,-0.77877 0.007,-0.0504 0.0109,-0.10081 0.0196,-0.15089 -0.0152,-0.17574 -0.0787,-0.34214 -0.0873,-0.51986 0.0122,0.0354 0.0711,0.13155 0.0563,0.0971 -0.0235,-0.0544 -0.0641,-0.10068 -0.0837,-0.15658 -0.0519,-0.14834 -0.0473,-0.25322 -0.0563,-0.39895 -0.0495,-0.17039 -0.15895,-0.55704 -0.0946,-0.75499 -0.012,-0.0204 -0.0233,-0.0411 -0.0305,-0.0636 -0.0568,-0.17894 -0.0695,-0.27981 -0.0512,-0.41703 -0.0737,-0.1867 -0.12378,-0.5165 -0.15709,-0.62683 -0.001,-0.004 -0.002,-0.006 -0.003,-0.0103 -0.13839,0.006 -0.27604,-0.002 -0.40824,-0.0419 -0.35576,-0.10695 -0.53751,-0.24427 -0.74053,-0.463536 -0.24155,0.04243 -0.422,-0.05766 -0.53278,-0.386022 -0.0397,-0.117528 -0.0165,-0.275595 0.0207,-0.433049 -0.0316,-0.08003 -0.0644,-0.172839 -0.10335,-0.295071 -0.0469,-0.147127 -0.0693,-0.300826 -0.0971,-0.452686 -0.14426,-0.784972 -0.23387,-1.574708 -0.24288,-2.374017 0.0353,-0.495374 0.0452,-0.717021 0.1173,-1.251085 0.19698,-1.458087 -0.0338,0.692751 0.18139,-1.132747 -0.002,-0.02469 -0.003,-0.05024 -0.004,-0.08217 -10e-4,-0.04189 -0.002,-0.08367 -0.003,-0.125574 0.002,-0.131033 0.005,-0.126204 0.0165,-0.177769 -0.003,-0.03033 -0.006,-0.06063 -0.009,-0.09095 -0.008,-0.01463 -0.0174,-0.02857 -0.0227,-0.04444 -0.0781,-0.229983 -0.0741,-0.223996 -0.0579,-0.383439 0.003,-0.02532 0.002,-0.02997 0.004,-0.04909 -0.0985,-0.145519 -0.14975,-0.321636 -0.22479,-0.479042 -0.0954,-0.217524 -0.0695,-0.12364 -0.10284,-0.419094 h -5.3e-4 c -0.0696,0.09547 -0.12976,-0.05878 -0.1726,-0.230476 0.0377,0.08138 0.0953,0.148 0.18087,0.216524 v 5.29e-4 c -0.002,0.0031 -0.004,0.006 -0.006,0.0088 0.002,0.0019 0.005,0.0042 0.006,0.0057 0.0116,0.01392 0.0188,0.03319 0.0341,0.04289 0.008,0.0049 -0.005,-0.01754 -0.008,-0.02635 l 0.0713,0.03772 c -0.0355,-0.02402 -0.0669,-0.04688 -0.0956,-0.06976 0.0205,-0.03501 0.0422,-0.09167 0.0641,-0.177249 -0.0832,-0.03547 -0.18001,-0.04925 -0.25011,-0.106453 -0.006,-0.0051 -0.01,-0.0081 -0.0155,-0.01291 0.006,0.02461 0.0111,0.04964 0.0171,0.07441 -0.0121,-0.02701 -0.0221,-0.05591 -0.0305,-0.08682 -0.26454,-0.222917 -0.1183,-0.196403 -0.22944,-0.399976 -0.0109,-0.01998 -0.0239,-0.03833 -0.0372,-0.05684 -0.10842,-0.04114 -0.24068,-0.09078 -0.42065,-0.150895 -0.0467,-0.01561 0.017,-0.09811 0.015,-0.147277 -0.004,-0.08306 -0.0214,-0.164555 -0.032,-0.247015 -0.015,-0.09995 -0.0284,-0.200168 -0.0424,-0.300239 -0.0589,-0.03105 -0.12191,-0.05719 -0.1602,-0.109553 -0.0836,-0.114234 -0.11955,-0.257157 -0.16795,-0.390157 -0.004,-0.01217 -0.005,-0.0406 10e-4,-0.04909 -0.0123,-0.02061 -0.0261,-0.04491 -0.047,-0.08165 -0.0869,-0.15308 0.0387,0.04674 -0.0279,-0.08217 -0.0109,-0.02098 -0.0323,-0.03525 -0.0393,-0.05891 -0.14218,-0.168304 -0.21681,-0.241279 -0.23409,-0.402558 -0.19375,0.0016 -0.38709,0.0082 -0.57981,0.02842 -0.0823,0.0057 -0.46587,0.03994 -0.58601,0.02532 -0.33697,-0.041 -0.52111,-0.137158 -0.8077,-0.290939 -0.0773,-0.168119 -0.13963,-0.344043 -0.23203,-0.504362 -0.01,-0.01664 -0.009,0.01548 -0.0103,0.04599 10e-4,-0.02246 0.002,-0.04469 0.002,-0.06718 2.6e-4,-0.143113 -0.001,-0.129648 -0.0108,-0.275436 -0.0145,-0.261644 -0.0293,-0.507545 0.004,-0.76998 0.013,-0.102365 0.0557,-0.198562 0.0785,-0.299207 0.0119,-0.05264 0.021,-0.105712 0.0315,-0.158647 0.0383,-0.204711 0.069,-0.41317 0.10697,-0.619598 -0.0144,0.0068 -0.0298,0.01402 -0.0367,0.01601 -0.12463,0.0364 -0.19239,0.05483 -0.24443,0.06873 -0.31441,0.131091 -0.40506,0.01191 -0.63769,-0.20774 -0.0365,-0.03449 -0.0323,-0.14877 -0.0951,-0.159679 -0.12128,-0.177721 -0.18356,-0.315682 -0.21756,-0.535368 -0.004,-0.02307 0.006,-0.159414 0.004,-0.187585 -0.001,-0.0227 -0.008,-0.04481 -0.0124,-0.06718 -0.0317,-0.175326 -0.021,-0.329189 0.0512,-0.479041 -0.23961,-0.137361 -0.25478,-0.505757 0.15348,-0.777214 0.008,-0.0218 0.0161,-0.04257 0.0253,-0.06201 -0.0249,-0.250884 0.22529,-0.386012 0.42064,-0.600999 0.31302,0.02238 0.29401,-0.0285 0.53796,0.344168 0.0135,0.02072 0.0191,0.05361 0.0222,0.0894 0.0342,-0.0045 0.0684,-0.01029 0.10284,-0.01085 0.23671,-0.0038 0.47498,0.08046 0.68471,0.185002 l 0.001,-5.29e-4 c 0.48574,0.242144 0.52725,0.634629 0.28835,0.794266 0.0255,0.164152 0.0337,0.332107 0.0357,0.499194 10e-4,0.08654 0.002,0.173525 -0.008,0.259416 -0.006,0.04927 -0.0166,0.09768 -0.0269,0.146243 0.0165,0.02291 0.0307,0.04308 0.0496,0.06666 0.004,0.0052 -0.008,-0.0122 -0.006,-0.0186 0.002,-0.0038 0.007,0.0044 0.0104,0.0067 0.007,-0.0317 2.6e-4,-0.02606 0.0558,0.0057 0.23799,0.135313 0.32594,0.260091 0.41083,0.527616 -0.006,-0.08629 -0.23306,-0.551601 0.20929,0.261998 0.0213,0.03922 0.0293,0.08389 0.0398,0.127641 0,-5.3e-5 5.3e-4,0.0016 5.3e-4,0.0016 0.003,0.0105 0.005,0.02125 0.008,0.03152 0.006,0.0052 0.0191,0.02159 0.0181,0.0155 l 5.2e-4,5.29e-4 c 0.0333,0.05936 0.0674,0.118417 0.0966,0.179835 0.0195,0.04096 0.0236,0.08871 0.046,0.128156 0.006,0.0097 0.0215,0.0034 0.0315,0.0088 0.0134,0.0075 0.0239,0.01934 0.0357,0.02894 0.152,0.214664 0.22498,0.285062 0.33383,0.504878 0.007,0.01183 0.0118,0.02442 0.0176,0.03669 4e-5,-0.0011 -4e-5,-0.0021 0,-0.0031 -0.0403,-0.09336 -0.0446,-0.111057 -0.0951,-0.330214 -0.005,-0.02133 -0.01,-0.04275 -0.0145,-0.06408 -0.004,-0.01 -0.008,-0.0191 -0.0124,-0.031 -0.0237,-0.06885 -0.0389,-0.140687 -0.0584,-0.210841 -0.0414,-0.413311 -0.0803,-0.282916 0.83405,-0.235643 0.0432,0.0021 0.0186,0.08441 0.0284,0.126606 0.009,0.03976 0.0183,0.07962 0.0274,0.119372 0.0129,0.0316 0.0289,0.07066 0.0537,0.135392 0.024,0.09068 0.0442,0.182417 0.0605,0.274918 0.0226,0.04913 0.0541,0.11665 0.11834,0.266652 0.17074,0.371296 0.21099,0.460161 0.31626,0.699699 0.14759,0.176464 0.30292,0.361339 0.35966,0.582393 0.0119,0.04647 -0.0156,0.09273 -0.0522,0.131257 0.008,0.01593 0.0161,0.03194 0.0248,0.04754 0.1418,0.254548 0.5261,0.817928 0.73588,1.074354 0.16792,0.205245 0.34939,0.399351 0.524,0.598929 0.28611,0.277416 0.536,0.584079 0.76429,0.906921 0.092,0.106545 0.14612,0.176545 0.25683,0.366387 0.0348,0.05962 0.0693,0.119475 0.10284,0.179834 0.18266,0.295484 0.35469,0.598001 0.52503,0.899687 0.0621,0.09887 0.12426,0.197651 0.18087,0.299722 0.0113,0.02032 0.0373,0.0602 0.0155,0.06821 -10e-4,2.64e-4 -0.002,0.0011 -0.003,0.0016 0.0592,0.150024 -0.0152,0.174027 -0.31833,0.181901 0.23632,0.327099 0.4527,0.666605 0.62063,1.041797 0.0901,0.302985 0.15535,0.511823 0.21498,0.763262 V 81.89536 Z m 18.95853,1.466578 c -0.0292,-7.94e-4 -0.0657,0.0036 -0.0796,0.01654 -0.03,0.02797 -0.0562,0.05557 -0.0811,0.08268 0.0671,-0.02392 0.13391,-0.04885 0.19585,-0.0832 0.0166,-0.0092 -0.005,-0.01519 -0.0341,-0.01603 z m -0.32711,0.07958 c -0.0204,0.0059 -0.0408,0.03601 -0.0527,0.104902 0.0369,-0.01754 0.0751,-0.03227 0.11369,-0.04651 -0.009,-0.03549 -0.0352,-0.06581 -0.061,-0.05839 z m 0.15038,0.189135 c -0.031,0.0013 -0.0583,0.0069 -0.0739,0.01963 -0.0305,0.02492 -0.0553,0.05438 -0.078,0.0863 0.001,0.0013 0.002,0.0021 0.004,0.0036 0.10739,-0.0066 0.21735,-0.0066 0.31264,-0.05013 0.0549,-0.02508 -0.071,-0.06325 -0.16382,-0.05943 z m 0.36432,0.723471 c -2.5e-4,0.0071 -2.1e-4,0.01413 -5.3e-4,0.02119 0.004,0.0027 0.009,0.0055 0.0124,0.0083 -0.001,-0.008 1.5e-4,-0.01577 -0.003,-0.02379 -0.003,-0.0019 -0.005,-0.0036 -0.009,-0.0057 z m -0.0806,0.861447 c 5.3e-4,0.0098 5.3e-4,0.01974 0.002,0.02946 0.009,0.0013 0.0144,0.0016 0.0217,0.0026 -7.9e-4,-0.004 -0.002,-0.01072 5.3e-4,-0.0088 0.003,0.0028 0.005,0.0067 0.008,0.0098 0.0174,0.0016 0.0285,0.0013 0.0155,-0.0067 -0.0205,-0.01251 -0.0296,-0.01622 -0.047,-0.02635 z m 1.19941,1.122412 c -0.0294,0.16831 -0.0557,0.337215 -0.0868,0.504362 -0.009,0.169889 -0.10813,0.371174 -0.12713,0.532268 -0.0143,0.121317 0.0199,0.373975 0.0269,0.491442 0.006,0.06608 0.009,0.132665 0.0108,0.198954 0.0656,0.03961 0.13066,0.08235 0.20257,0.10232 0.0442,0.01225 0.15291,-0.0078 0.20361,-0.01188 0.10633,-0.0085 0.21243,-0.01524 0.31884,-0.02273 0.16474,-0.0168 0.33009,-0.02527 0.49558,-0.02894 -0.0269,-0.02291 -0.0543,-0.04518 -0.0749,-0.07338 -0.0888,-0.121639 -0.11813,-0.26013 -0.16175,-0.39946 -0.008,-0.01611 -0.0226,-0.03024 -0.0222,-0.04806 1.9e-4,-0.0085 0.0276,0.01707 0.0227,0.0098 -0.0521,-0.07881 -0.13102,-0.142878 -0.16692,-0.233577 -0.15381,-0.16051 -0.13758,-0.127723 -0.27337,-0.363286 -0.0118,-0.02051 -0.0152,-0.04521 -0.0222,-0.06769 0.008,-1.11e-4 0.0283,0.007 0.0243,0 -0.14948,-0.26475 -0.11646,-0.175427 -0.0853,-0.10232 -0.0144,-0.03206 -0.0307,-0.06867 -0.092,-0.199988 -0.0323,-0.126502 -0.0403,-0.08213 0.0946,-0.0072 0.0223,0.01233 -0.0437,-0.02714 -0.0641,-0.04237 -0.0932,-0.06943 -0.16564,-0.145195 -0.22221,-0.238228 z m 2.23191,0.104902 c 1.9e-4,5.3e-4 7.9e-4,0.0011 0.001,0.0016 -1.9e-4,-7.94e-4 -2.4e-4,-7.94e-4 -5.3e-4,-0.0016 z m 0.001,0.0016 c 0.004,0.01384 0.005,0.01865 0.007,0.02997 0.001,-2.65e-4 0.003,-5.29e-4 0.004,-0.0011 0.01,-0.0029 -0.005,-0.01865 -0.0104,-0.02894 z m 0.69091,3.731038 c -0.008,0.03273 -0.0159,0.06543 -0.0238,0.09819 0.007,0.01468 0.0125,0.03012 0.0207,0.04444 0.0231,0.03035 0.0446,0.06058 0.0656,0.09095 -2e-4,-0.02619 -2.6e-4,-0.05244 -0.004,-0.07855 -0.007,-0.06307 -0.0306,-0.112168 -0.0584,-0.15503 z m 0.19999,0.120406 c -0.008,2.65e-4 -0.0188,0.0011 -0.0326,0.0021 0.0223,0.0016 0.0409,0.0035 0.061,0.0052 -0.005,-0.0063 -0.0123,-0.0079 -0.0284,-0.0072 z m 0.96273,1.118278 c 0.0403,0.165023 0.0801,0.346112 0.12919,0.562758 0.11067,-0.03802 0.23053,-0.01085 0.37311,0.01241 -0.0279,-0.04084 -0.0551,-0.08216 -0.0837,-0.122473 -0.0538,-0.06093 -0.10932,-0.120687 -0.16278,-0.181901 -0.0857,-0.0899 -0.17049,-0.180047 -0.25528,-0.270785 z m -1.27331,0.334346 c 2.4e-4,0.0021 2e-4,0.0026 5.3e-4,0.0047 8e-4,-0.0011 5.3e-4,-0.0021 0.002,-0.0031 -0.001,-0.0011 -0.002,-0.0024 -0.002,-0.0016 z m 2.96055,2.934189 c -0.001,0.02304 -0.003,0.04619 -0.005,0.06925 -4e-5,0.12165 -5.3e-4,0.243184 -5.3e-4,0.364834 0.0237,0.232074 0.0208,0.485881 0.001,0.719336 2.6e-4,0.166362 2.6e-4,0.332835 0.002,0.499194 5.3e-4,0.159229 -5.3e-4,0.318281 -0.003,0.477491 0.10184,-0.03548 0.2087,-0.05113 0.31678,-0.06253 0.006,-0.227039 5.2e-4,-0.45498 -0.0129,-0.686263 -0.007,-0.127902 -0.0109,-0.256831 -0.0336,-0.382921 -0.0653,-0.36268 -0.16075,-0.654306 -0.26458,-0.998389 z m 0.28835,2.432926 c -0.11874,0.07366 -0.22928,0.144039 -0.29921,0.197921 -2.6e-4,0.03342 -2.1e-4,0.06684 -5.3e-4,0.100251 0.0289,-0.0026 0.0657,-0.0082 0.11369,-0.0181 0.0515,-0.01064 0.10332,-0.01976 0.15503,-0.02946 0.0132,-0.08354 0.0227,-0.167283 0.031,-0.250632 z m -1.54874,0.01188 c -2.2e-4,7.93e-4 -2.2e-4,0.003 -5.3e-4,0.0047 7.9e-4,0.0081 0.002,0.01302 0.003,0.02223 2.6e-4,9.8e-5 8e-4,-1.03e-4 10e-4,0 -5.3e-4,-0.01868 -0.002,-0.03026 -0.003,-0.02687 z m 1.96939,0.104904 c -0.005,0.01371 -0.0101,0.02714 -0.015,0.04082 0.002,-5.29e-4 0.005,-7.94e-4 0.007,-0.0016 0.013,-0.0035 0.0114,-0.05191 0.008,-0.03927 z m 0.31781,0.611849 c -0.0752,0.22936 -0.14508,0.436378 -0.20878,0.655773 0.13033,0.157752 0.11842,0.379129 0.11421,0.597381 0.0687,0.245105 0.0933,0.493954 0.0605,0.763776 -0.01,0.07944 -0.0387,0.15536 -0.0579,0.23306 -0.009,0.0133 -0.0103,0.0215 -0.009,0.0269 0.005,0.0161 0.0476,0.006 0.0506,0.0212 0.004,0.0217 0.007,0.0434 0.01,0.0651 0.014,0.012 0.0273,0.0254 0.0403,0.0398 z m -2.24948,1.532724 c -0.005,0.008 -0.008,0.0136 -0.0129,0.02066 0.0723,0.06896 0.153,0.140065 0.2067,0.164332 0.0435,0.01966 0.10029,0.02822 0.1633,0.02997 0.005,-0.06782 0.0105,-0.135104 0.015,-0.201538 -0.12425,0.0016 -0.24871,1.9e-4 -0.37207,-0.01344 z m 1.29243,0.833536 c -5.3e-4,2.6e-4 -5.3e-4,8e-4 -0.002,0.001 5.3e-4,0.002 5.3e-4,0.004 0.002,0.006 7e-5,-0.002 -7e-5,-0.004 0,-0.007 z m -0.31109,3.08612 c 2.6e-4,0.002 1.8e-4,0.004 5.3e-4,0.005 1.3e-4,-0.002 5.3e-4,-0.003 5.3e-4,-0.005 z m 5.3e-4,0.008 c -8e-4,0.0103 -0.002,0.0213 -0.002,0.0274 0,0.007 0.004,-0.0142 0.003,-0.0212 -1.3e-4,-0.002 -5.3e-4,-0.004 -0.001,-0.006 z m 1.26762,0.11886 c -0.0126,0.19154 -0.0432,0.37493 -0.0765,0.56327 0.0119,0.21911 0.0223,0.25123 -0.0129,0.50127 -0.008,0.0598 -0.0217,0.11835 -0.0377,0.17673 0.006,-0.0118 0.0115,-0.0246 0.0181,-0.0362 0.0171,-0.0302 0.0754,-0.086 0.10955,-0.12971 z m -1.02474,6.40219 c -0.0203,10e-4 -0.007,0.008 0.0243,0.0233 0.004,-0.008 0.006,-0.0147 0.009,-0.0222 -0.008,-1.3e-4 -0.0283,-0.001 -0.0331,-0.001 z m 0.34003,0.0527 c -0.004,0.004 -0.009,0.009 -0.0129,0.0119 0.003,-2.6e-4 0.005,-7.9e-4 0.008,-0.001 0.002,-0.005 0.003,-0.006 0.005,-0.0108 z m -0.0491,0.0558 c -0.001,0.0121 -0.003,0.0242 -0.005,0.0362 l 5.2e-4,-5.2e-4 c 0.008,-0.008 0.0159,-0.0159 0.0253,-0.0248 -0.0106,-0.004 -0.0136,-0.007 -0.0207,-0.0108 z m 0.0171,0.03 c -0.007,0.002 -0.014,0.005 -0.0212,0.007 h -5.3e-4 v 5.3e-4 c -2.6e-4,2.7e-4 -5.3e-4,8e-4 -10e-4,0.001 -0.001,0.006 -0.003,0.0117 -0.004,0.0176 l 0.015,0.009 c 0.004,-0.0116 0.008,-0.0233 0.0119,-0.0351 z m -0.55087,0.24237 -5.3e-4,5.3e-4 c -0.004,2.6e-4 -0.006,0.0166 -0.004,0.0326 0.008,-2.6e-4 0.0144,-2.6e-4 0.0207,5.3e-4 -0.004,-0.0102 -0.009,-0.0204 -0.0134,-0.0305 -8e-4,-0.002 -0.002,-0.002 -0.003,-0.003 z m 0.65629,0.5395 c -0.01,0.001 -0.0153,0.002 -0.0263,0.003 -0.002,1.8e-4 -0.004,8e-4 -0.006,0.001 -5.3e-4,8e-4 -0.001,0.002 -0.002,0.003 -0.005,0.0326 -0.0116,0.0641 -0.0233,0.093 0.0301,-0.017 0.0601,-0.0342 0.0894,-0.0522 -0.01,-0.0162 -0.0208,-0.0318 -0.0315,-0.0475 z m 0.0796,0.18552 c -0.0295,5.2e-4 -0.0564,0.006 -0.0692,0.0186 -0.007,0.007 -0.0131,0.0134 -0.0196,0.0202 0.0193,0.0102 0.0387,0.0185 0.0558,0.0243 0.0229,-0.002 0.0455,-0.006 0.0677,-0.0104 1.7e-4,-0.004 -8e-5,-0.008 -0.002,-0.0129 -0.004,-0.0133 -0.008,-0.0264 -0.0129,-0.0393 -0.007,-2.6e-4 -0.0136,-5.2e-4 -0.0202,-5.2e-4 z m 0.53175,0.21962 c -0.0121,0.007 -0.0255,0.0134 -0.0419,0.0176 -0.0202,0.0234 -0.059,0.0497 -0.1018,0.0729 -0.0162,0.0303 -0.0324,0.0604 -0.0501,0.0894 0.0198,-0.008 0.0388,-0.0174 0.0574,-0.0274 0.0346,-0.0183 0.009,-0.0797 0.0263,-0.0284 0.0402,0.0143 0.0762,0.0281 0.11007,0.0419 z m -0.18913,0.28319 c -0.003,7.9e-4 -0.008,0.004 -0.0139,0.01 -0.0256,0.0253 -0.0481,0.0531 -0.0692,0.0822 0.006,0.027 0.0102,0.053 0.0139,0.0786 0.0503,-0.077 0.0897,-0.17528 0.0692,-0.17054 z m -0.0997,0.11524 c -0.0278,0.0407 -0.0528,0.0838 -0.078,0.1266 0.0187,-0.013 0.0364,-0.0272 0.0522,-0.0434 0.0156,-0.0159 0.0222,-0.052 0.0259,-0.0832 z" />
    </clipPath>
    <clipPath
       clipPathUnits="userSpaceOnUse"
       id="clipPath131084">
      <path
         id="path131086"
         style="fill:none;stroke:#000000;stroke-width:0.465;stroke-miterlimit:4;stroke-dasharray:none"
         d="m 113.70468,26.611813 v 51.90019 h 9.77409 c -0.0382,-0.05833 -0.0762,-0.11666 -0.0951,-0.182933 -0.015,-0.05247 -0.0161,-0.108558 -0.0109,-0.163816 -0.0869,0.0331 -0.17364,0.06861 -0.26148,0.05116 -0.31302,-0.06219 -0.41848,-0.160575 -0.39016,-0.30644 -0.2034,-0.09585 -0.35222,-0.219956 -0.51573,-0.499711 -0.0195,-0.03348 -0.0142,-0.07455 -0.0129,-0.114723 -0.15219,0.02484 -0.30933,0.01283 -0.46457,-0.03617 -0.0249,-0.01193 -0.0539,-0.01778 -0.0749,-0.03566 -0.16986,-0.144844 -0.21002,-0.334571 -0.23461,-0.538985 -0.0195,-0.04148 -0.0383,-0.08286 -0.0548,-0.125574 -0.005,-0.01402 0,-0.03045 0,-0.04547 v -0.104905 -0.223758 c -0.003,-0.0204 -0.005,-0.04085 -0.007,-0.06149 -0.003,-0.02937 -0.0147,-0.06213 -0.003,-0.08837 -0.0742,-0.06637 -0.14586,-0.134958 -0.23358,-0.214455 -0.17763,-0.168521 -0.37573,-0.310478 -0.5793,-0.443902 -0.0305,0.01352 -0.061,0.02736 -0.11058,0.04909 -0.0546,0.02394 -0.10768,0.05469 -0.16588,0.0677 -0.0941,0.02101 -0.19094,0.03097 -0.28733,0.03307 -0.0619,0.0013 -0.12536,-0.0035 -0.18396,-0.02326 -0.072,-0.02421 -0.13434,-0.07101 -0.20154,-0.106455 -0.0402,-0.05471 -0.0934,-0.101553 -0.12041,-0.163815 -0.0545,-0.125645 -0.0538,-0.457999 -0.0315,-0.596344 0.005,-0.03026 0.0118,-0.06014 0.0191,-0.08992 -0.003,-0.0046 -0.006,-0.0092 -0.009,-0.01394 -0.0252,-0.04185 -0.0467,-0.08606 -0.0677,-0.130225 -0.0924,0.0481 -0.19144,0.09418 -0.29817,0.141594 -0.13136,0.04761 -0.38339,0.174948 -0.4992,-0.02016 -0.0795,-0.134551 2.7e-4,-0.313275 0.002,-0.469741 8e-5,-0.0065 5.3e-4,-0.0082 5.3e-4,-0.01394 -0.0289,-0.02035 -0.0563,-0.04279 -0.0816,-0.06718 -0.0786,-0.07546 -0.14517,-0.163018 -0.21756,-0.244428 -0.22674,-0.323993 -0.0134,-0.01921 -0.26096,-0.374655 -0.0294,-0.04217 -0.0708,-0.0778 -0.0884,-0.12609 -0.1257,-0.345297 -0.11103,-0.580268 -0.0873,-0.929142 -0.0195,-0.06877 -0.0337,-0.128792 -0.0372,-0.151929 -0.007,-0.04614 -0.009,-0.09307 -0.0129,-0.139526 -0.009,-0.0787 0.0296,-0.163864 0.0181,-0.242363 -0.008,-0.05214 -0.0387,-0.09871 -0.0491,-0.150379 -0.0114,-0.05642 -0.0173,-0.113641 -0.0263,-0.170532 -0.001,-0.03521 -0.009,-0.07064 -0.004,-0.105421 -0.17549,0.08665 -0.40514,-0.05335 -0.40514,-0.421161 v -0.120406 -0.360185 -5.3e-4 c -0.016,-0.0173 -0.0323,-0.03944 -0.0486,-0.0677 -0.0434,-0.07509 -0.22249,-0.344644 -0.17829,-0.440282 0.006,-0.0132 0.0119,-0.02663 0.0186,-0.03979 -0.0573,-0.132273 -0.0576,-0.184383 -0.031,-0.321426 -0.008,0.01712 -2.7e-4,-0.01675 -0.002,-0.03152 -0.001,-0.01786 -5.3e-4,-0.03587 -0.002,-0.05374 5e-5,-0.02463 2.1e-4,-0.04926 5.3e-4,-0.0739 2.6e-4,-0.03773 5.3e-4,-0.07546 5.3e-4,-0.113173 -3e-5,-0.0024 0,-0.0048 0,-0.0072 -0.0125,-0.01974 -0.0237,-0.04004 -0.0336,-0.06098 -0.064,-0.07593 -0.0415,-0.188267 -0.0305,-0.273884 -0.0299,-0.01185 -0.0241,-0.0377 -0.0713,-0.209291 -0.0751,-0.272941 0.10311,-0.16035 0.28887,-0.02687 -0.13504,-0.32716 -0.10149,-0.441571 -5.3e-4,-0.45062 0.0297,-0.170661 0.1373,-0.264646 0.25373,-0.26975 h 5.3e-4 c 0.14136,-0.0059 0.2957,0.119001 0.34158,0.394293 0.0101,0.06014 0.0215,0.120049 0.0305,0.18035 0.004,0.02768 0.008,0.05541 0.0114,0.0832 0.0392,0.06335 0.0602,0.125757 0.0636,0.199988 -0.0136,-0.03067 -0.0292,-0.06323 -0.0465,-0.09819 0.0107,0.107397 -0.0373,0.242483 -0.1726,0.377757 l -0.0248,0.02479 c 0.002,0.0089 2.7e-4,0.0176 0.001,0.02635 0.0829,0.0425 0.16778,0.07887 0.23099,0.07855 5e-5,0.03021 -4e-5,0.06025 0,0.09043 -8e-5,0.06017 -4e-5,0.120182 0,0.180351 10e-6,0.06017 0,0.120705 0,0.180866 v 0.159166 c 10e-4,0.0053 0.003,0.01069 0.004,0.01601 0.005,0.07119 0.01,0.08332 0.004,0.122991 0.0631,0.115708 0.0578,0.08424 0.062,0.166915 2.5e-4,5.3e-4 2.1e-4,0.0011 5.3e-4,0.0016 1.9e-4,2.62e-4 2.5e-4,7.94e-4 5.3e-4,0.0011 0.001,0.01865 0.002,0.04097 0.005,0.07441 0.002,0.02365 0.004,-0.04796 -0.003,-0.0708 0.006,0.0109 0.0128,0.0217 0.0191,0.03256 0.006,0.01032 0.0121,0.02064 0.0181,0.03101 0.002,0.01206 0.007,0.03033 0.0119,0.04961 0.0254,0.06389 0.0513,0.12782 0.0682,0.194302 0.007,0.02726 0.0114,0.04857 0.0145,0.06563 0.0801,-0.09515 0.18451,-0.139801 0.29508,-0.204639 0.0232,-0.01363 0.0382,-0.04023 0.0615,-0.05374 0.0559,-0.03242 0.11446,-0.0607 0.17157,-0.09095 0.25892,-0.09037 0.53621,-0.01979 0.80408,-0.02119 0.58219,-0.02085 0.79165,0.405352 1.00252,0.862997 0.0783,0.199358 0.0699,0.173548 0.14366,0.383955 0.0138,0.03931 0.0318,0.07748 0.0398,0.11834 0.0578,0.292034 0.0609,0.568299 0.0589,0.864545 -0.0122,0.280339 -0.004,0.223922 -0.0491,0.545703 -0.002,0.01643 -0.004,0.03302 -0.006,0.04961 0.0143,0.006 0.0282,0.01328 0.0413,0.0217 0.11872,0.07635 0.2263,0.169937 0.32815,0.267682 0.0653,0.06268 0.12335,0.13444 0.17105,0.211357 0.0614,0.09902 0.1026,0.208632 0.154,0.313161 0.0215,0.06941 0.0556,0.136112 0.0646,0.208256 0.0292,0.246224 0.014,0.426357 -0.0656,0.612881 0.006,0.01032 0.0118,0.02088 0.0181,0.03101 0.0306,0.165254 0.0696,0.214926 -0.0289,0.359151 0.0146,0.0038 0.0286,0.0067 0.0491,0.01291 0.24301,0.05526 0.359,0.269315 0.45424,0.47439 -0.009,-0.03505 0.0352,7.94e-4 0.10749,0.0739 0.19254,-0.02567 0.3903,-0.01442 0.58756,-0.0031 0.11068,-7.94e-4 0.20135,0.02973 0.27078,0.08423 0.0341,-0.0065 0.0682,-0.01323 0.10232,-0.01913 0.15532,-0.02683 0.31166,-0.05187 0.46871,-0.06563 0.11278,-0.0099 0.2263,-0.0037 0.33951,-0.0052 0.49786,-0.0066 0.3702,-0.0051 0.77308,-0.0062 0.51752,0.02291 0.23912,-0.01357 0.45888,0.03462 0.0298,0.0065 0.0762,-0.0092 0.0899,0.0181 0.17883,0.356817 0.25746,0.497152 0.20722,0.564824 0.0694,0.01032 0.13887,0.02008 0.20826,0.03049 0.11289,0.01691 0.22739,0.02593 0.33848,0.05219 0.0885,0.02093 0.17185,0.05919 0.25787,0.08888 0.0141,0.0132 0.0308,0.02524 0.0481,0.03669 0.0394,-0.0013 0.0816,-0.0024 0.12867,-0.0031 0.44864,-0.0059 0.3228,-0.02074 0.62219,0.04444 0.17499,0.07017 0.29463,0.08171 0.40772,0.228925 0.0127,0.01651 0.0244,0.0333 0.0357,0.04961 0.064,0.0059 0.16086,0.01498 0.25528,0.02379 0.006,2.48e-4 0.0121,1.88e-4 0.0181,5.29e-4 0.032,-0.0163 0.10082,-0.0052 0.14056,-0.01291 0.36547,-0.07102 0.7353,-0.111747 1.10484,-0.153479 0.27205,-0.05061 0.54348,-0.105781 0.81597,-0.153996 0.013,-0.0024 0.009,-0.0019 0.0222,-0.0041 -8e-4,-0.01156 -0.001,-0.02313 -0.002,-0.03462 0.19854,-0.03294 0.39711,-0.05667 0.59738,-0.06976 0.0473,-0.0083 0.1119,-0.01955 0.15089,-0.02635 0.052,-0.01326 0.12065,-0.03283 0.30541,-0.0801 0.29287,-0.08403 0.37558,-0.106955 0.55242,-0.151929 -0.0574,-0.146661 0.0453,-0.137692 0.31316,-0.222723 0.1238,-0.02133 0.24608,-0.05131 0.37104,-0.06408 0.0878,-0.009 0.17681,-0.0016 0.2651,-0.0021 -0.0148,-0.03716 -0.0248,-0.07578 -0.0279,-0.116274 -0.006,-0.08351 0.13672,-0.09783 0.19482,-0.158129 0.0132,-0.01365 0.007,-0.03725 0.0114,-0.05581 0.0216,-0.03236 0.0358,-0.07095 0.0646,-0.09715 0.11931,-0.108651 0.18304,-0.159094 0.25063,-0.200504 -0.0124,-0.04003 0.0536,-0.05532 0.10593,-0.0739 0.0438,-0.0279 0.0939,-0.05809 0.15503,-0.0987 0.0971,-0.06348 0.16913,-0.116597 0.23048,-0.148312 0.016,-0.02193 0.0322,-0.04335 0.0496,-0.06408 0.23259,-0.277294 0.14669,-0.156556 0.29869,-0.305408 0.009,-0.06081 0.0218,-0.123714 0.0393,-0.174149 -7.9e-4,-0.03427 -0.002,-0.06859 0,-0.102836 0.003,-0.06301 0.0264,-0.124029 0.0284,-0.187068 5.3e-4,-0.01296 -0.0313,-0.02487 -0.0212,-0.03307 2.6e-4,-2.65e-4 5.3e-4,-7.94e-4 0.001,-0.0011 -0.1334,-0.178782 -0.0678,-0.119415 0.46405,-0.343131 -1.3e-4,-0.0058 -2.2e-4,-0.01172 -5.2e-4,-0.01757 h -5.3e-4 v -5.29e-4 c -0.002,-0.0013 -0.005,-0.0062 -0.0212,-0.02842 0.005,0.0046 0.013,0.0098 0.0212,0.01447 -0.002,-0.114512 -0.004,-0.228907 -0.005,-0.343649 0.002,-0.09791 -0.003,-0.16937 -0.002,-0.223758 -0.004,-0.01434 -0.006,-0.02844 5.3e-4,-0.0341 0.008,-0.115985 0.0663,-0.11268 0.33796,-0.0584 0.0108,-0.0019 0.0242,-0.0046 0.0341,-0.0062 -0.0153,-0.07935 -0.0266,-0.159369 -0.0284,-0.241329 -0.001,-0.04107 -0.0291,-0.109482 0.009,-0.122992 0.0898,-0.03128 0.18384,-0.0447 0.27905,-0.05374 -0.0146,-0.05605 -0.0295,-0.112048 -0.0367,-0.172082 -0.003,-0.03109 -0.034,-0.08735 -0.003,-0.09405 0.22966,-0.05062 0.36735,-0.09476 0.45217,-0.115755 -2.7e-4,-0.0058 -1.9e-4,-0.0118 -5.3e-4,-0.01757 0.0199,-0.09225 0.0325,-0.186537 0.0594,-0.276985 0.0219,-0.07357 0.0965,-0.213074 0.13642,-0.285255 0.01,-0.01744 0.0129,-0.04976 0.0259,-0.06149 9e-5,-0.06574 0.006,-0.094 0.0594,-0.213424 7.9e-4,-0.0019 0.002,-0.0029 0.003,-0.0047 -1.7e-4,-0.01963 -7.9e-4,-0.03926 -5.3e-4,-0.05891 1.8e-4,-0.0077 2.4e-4,-0.01503 5.3e-4,-0.02273 0.006,-0.280154 0.14369,-0.425146 0.28526,-0.438216 0.008,-0.03026 0.0163,-0.05013 0.0387,-0.09354 -0.005,0.01172 -0.008,0.0226 -0.009,0.03256 0.0662,-0.0033 0.11031,-0.0076 0.16433,-0.01188 -0.005,-0.04243 -0.001,-0.08636 0.002,-0.130225 -1.4e-4,-0.04265 -0.001,-0.07667 -5.2e-4,-0.101804 -4e-5,-2.62e-4 5e-5,-7.93e-4 0,-0.0011 0.001,-0.05372 0.01,-0.07147 0.046,-0.0708 0.0257,5.29e-4 0.0739,0.01106 0.13539,0.02326 0.008,-0.281948 0.15392,-0.423231 0.30024,-0.423231 0.15035,0 0.30076,0.148805 0.30076,0.446485 v 0.182417 0.183451 0.428398 c 0,0.171167 -0.0496,0.293124 -0.12041,0.365871 0,0.03482 -10e-6,0.06964 0,0.104386 2e-5,0.08223 0,0.164267 0,0.246496 v 0.174149 0.0832 c 0,0.45956 -0.35797,0.564113 -0.52141,0.314193 0.003,0.02167 0.006,0.04345 0.01,0.06511 0.0777,0.403947 -0.20845,0.560718 -0.41289,0.423746 -0.009,0.04683 -0.0169,0.09368 -0.0217,0.141076 -0.004,0.135239 0.005,0.391681 -0.12557,0.464571 -0.0492,0.02739 -0.0935,0.04774 -0.13333,0.06201 -7.9e-4,0.07144 -0.001,0.143016 -0.002,0.214456 0.002,0.01564 0.003,0.02503 0.004,0.03721 1.3e-4,5.29e-4 2.3e-4,5.29e-4 5.3e-4,0.0011 0.005,0.01921 0.0318,0.05459 0.0124,0.05839 -0.003,5.29e-4 -0.005,0.0011 -0.008,0.0016 -0.004,0.04665 -0.0486,0.03411 -0.18345,0.04341 -0.005,0.147495 -0.0104,0.295029 -0.002,0.441833 0.005,0.05993 0.0581,0.12773 0.0264,0.1788 -0.15579,0.250076 -0.21264,0.374833 -0.43149,0.304893 -0.0448,-0.01431 -0.0893,-0.03257 -0.12713,-0.06046 -2.5e-4,-2.64e-4 -5.3e-4,-7.94e-4 -0.001,-0.0011 -0.024,0.174363 -0.0578,0.349779 -0.11989,0.477488 -0.0254,0.05231 -0.0465,0.108895 -0.0739,0.160713 0.0746,0.03869 0.11478,0.16805 0.21807,0.509532 0.0159,0.0524 -0.088,0.06721 -0.13798,0.0894 -0.17381,0.07704 -0.48263,0.141319 -0.64957,0.1788 -0.10801,0.02426 -0.21631,0.04735 -0.32453,0.0708 -0.0174,0.02109 -0.0349,0.04174 -0.0496,0.06046 -0.0461,0.05872 -0.12213,0.08689 -0.18913,0.119891 -0.0919,0.04525 -0.18624,0.08684 -0.28267,0.121439 -0.2587,0.252854 -0.56399,0.439996 -0.88264,0.604615 0.065,-0.01728 0.10123,0.004 0.0848,0.114721 0.29721,0.261204 0.33384,0.35411 0.0868,0.467156 -0.219,0.100232 -0.34327,0.13253 -0.58136,0.210838 -0.16993,0.05019 -0.33901,0.104638 -0.51004,0.150895 -0.46134,0.124767 -0.93334,0.205541 -1.40095,0.303858 h 10.98072 v -51.90019 z m 20.35018,46.975943 c 1.1e-4,0.0046 -7e-5,0.0093 0,0.01394 0.002,5.29e-4 -5.3e-4,-0.008 0.006,-0.01085 -0.002,-0.0011 -0.004,-0.0021 -0.006,-0.0031 z m -16.02744,-3.368787 c 0.002,0.0044 0.004,0.0085 0.005,0.01291 -2.7e-4,-0.0013 -8e-4,-0.0028 -0.001,-0.0041 0,-0.0032 -0.005,-0.01175 -0.004,-0.0088 z m -0.28991,-1.718241 c 0.0163,0.01164 0.0305,0.02225 0.0424,0.03101 -0.0121,-0.01672 -0.0262,-0.02679 -0.0424,-0.03101 z m 0.21084,0.357084 c 0.13602,0.307608 0.0934,0.404469 -0.0124,0.40566 -6e-5,-0.02781 -2.6e-4,-0.05591 0,-0.08371 10e-4,-0.05452 0.003,-0.109513 -0.003,-0.163814 -0.006,0.02746 -0.007,0.0173 -0.001,-0.0093 2.6e-4,0.0031 7.9e-4,0.0062 0.001,0.0093 0.003,-0.01236 0.006,-0.0317 0.0103,-0.06201 0.005,-0.03475 0.006,-0.0662 0.005,-0.09612 z m -0.77979,0.894004 c -0.0505,0.0037 -0.0365,0.04885 -0.0191,0.09508 0.0184,-0.03229 0.0389,-0.06373 0.0615,-0.09302 -0.001,5.29e-4 -0.003,5.29e-4 -0.004,0.0011 -0.0156,-0.0029 -0.0282,-0.0038 -0.0382,-0.0031 z m 1.77922,0.999937 c -0.0123,-5.29e-4 -0.0237,0.0055 -0.0357,0.0083 -0.0516,-0.01728 -0.005,-0.0074 -0.0935,0.05633 -0.042,0.03023 -0.0854,0.05876 -0.13022,0.08475 -0.0152,0.0089 -0.0395,-0.0096 -0.0527,0.0021 -0.0206,0.01823 -0.031,0.04546 -0.0465,0.06821 -0.0465,0.07198 -0.09,0.145704 -0.13384,0.21911 0.0405,-0.02764 0.0829,-0.05279 0.12661,-0.07441 0.10793,-0.05338 0.2263,-0.08199 0.33951,-0.122992 0.22537,-0.05622 0.45607,-0.03333 0.67645,0.03256 0.0575,0.0172 0.11401,0.0389 0.17001,0.06046 0.0254,0.0098 0.0543,0.0149 0.078,0.0279 -0.012,-0.02762 -0.001,0.0013 -0.0806,-0.145209 -0.0186,-0.03442 -0.0302,-0.07308 -0.0537,-0.104389 -0.0126,-0.01677 -0.0345,-0.02418 -0.0517,-0.03617 -0.0194,-0.01347 -0.0348,-0.03561 -0.0579,-0.04031 -0.0424,-0.0085 -0.0865,0.0016 -0.12971,0.0026 -0.13263,-5.3e-4 -0.25508,-0.0046 -0.38654,-0.01707 -0.0462,-0.0044 -0.0917,-0.01971 -0.13797,-0.0217 z m 0.22065,0.807185 c -0.0195,7.94e-4 -0.0392,0.0027 -0.0589,0.0057 -0.0652,0.01773 -0.13353,0.02601 -0.19533,0.05323 -0.0497,0.02188 -0.0932,0.05518 -0.13798,0.0863 0.0767,0.08492 0.10991,0.117504 0.12144,0.127641 -0.006,-0.0033 -0.0136,-0.0027 -0.006,0.02066 0.0408,-0.0088 0.0824,-0.01378 0.1235,-0.01394 0.15794,-5.29e-4 0.30956,0.06712 0.38861,0.238747 0.038,0.08255 -0.008,0.181544 -0.0124,0.272335 -10e-4,0.02368 -0.003,0.04391 -0.006,0.0615 0.0598,0.05732 0.0851,0.13299 0.0734,0.208772 8e-4,0.0011 0.002,0.0024 0.003,0.0031 0.0347,0.03927 0.0687,0.07937 0.0992,0.121957 0.0854,0.119126 0.0293,0.06705 0.0672,0.101801 h 5.3e-4 c 0.0195,-0.257051 0.0263,-0.514578 0.0119,-0.773597 -0.005,-0.0849 -0.006,-0.170749 -0.0191,-0.254765 -0.005,-0.03462 -0.0237,-0.06579 -0.0357,-0.0987 0.0123,-0.01381 0.0427,-0.02373 0.0367,-0.04134 -0.007,-0.02072 -0.0392,-0.01879 -0.0594,-0.02687 -0.12618,-0.05078 -0.25771,-0.09753 -0.39429,-0.0925 z m 1.23869,2.006598 c -0.0501,0.05482 -0.1064,0.109537 -0.15451,0.155546 0.0264,0.03101 0.0524,0.06233 0.0785,0.09354 0.0262,0.04211 0.0425,0.07455 0.0724,0.109554 0.005,0.0061 0.0158,-0.003 0.0238,-0.0026 0.0237,0.01328 0.0538,0.019 0.0713,0.03979 0.024,0.02842 0.0458,0.05843 0.0672,0.08889 0.0947,0.02331 0.18369,0.06234 0.26769,0.111622 -0.005,-0.01921 -0.0128,-0.04312 -0.0227,-0.08062 -0.0271,-0.06486 -0.0468,-0.13345 -0.0811,-0.194821 -0.0121,-0.0217 -0.20389,-0.269094 -0.22169,-0.282154 -0.0291,-0.02138 -0.065,-0.03006 -0.10077,-0.03876 z m -1.07332,0.742074 c 1.8e-4,2.65e-4 1.9e-4,0.0013 5.3e-4,0.0016 0.002,0.0039 0.006,0.0091 0.0114,0.01394 -7.9e-4,-0.0024 -0.001,-0.0044 -0.002,-0.0067 -0.003,-0.0029 -0.006,-0.0059 -0.01,-0.0088 z m 15.63987,0.101285 c 0.003,0.07055 -0.011,0.08134 0.0264,0.04134 -0.004,-0.0085 -0.0144,-0.02442 -0.0264,-0.04134 z m -9.9875,1.257806 c -0.0107,-2.41e-4 -0.0188,0.0019 -0.0196,0.0098 0.0178,-0.0028 0.0355,-0.006 0.0532,-0.0088 -0.009,0.0016 -0.0224,-7.93e-4 -0.0336,-0.0011 z m 7.70702,1.198374 c -0.0278,0.0073 -0.042,0.01074 -0.0594,0.01498 0.0207,0.0073 0.0784,-0.02003 0.0594,-0.01498 z m -8.6589,0.104386 c -0.0332,0.0016 -0.063,0.0026 -0.12248,0.0047 0.0111,0.0052 0.0219,0.01048 0.0331,0.0155 0.0319,-0.0073 0.069,-0.01548 0.0894,-0.02016 z m -1.24902,0.104905 c 0.001,0.0209 0.002,0.04697 0.004,0.07028 0.0354,-0.0029 0.0732,-0.005 0.11524,-0.0062 -0.0233,-0.01045 -0.0603,-0.03064 -0.11885,-0.06408 z m 3.44682,0.866095 c -0.0166,0.0038 -0.0341,0.0076 -0.0512,0.01138 0.0145,0.0019 0.0289,0.0038 0.0434,0.0057 0.003,-0.0058 0.005,-0.0113 0.008,-0.01707 z m 2.06602,0.235646 c 7.9e-4,0.003 0.002,0.0088 0.004,0.01344 0.001,-0.0011 0.002,-0.0024 0.003,-0.0036 -1.6e-4,-7.94e-4 -2e-4,-0.0016 -5.3e-4,-0.0026 -0.002,-0.0019 -0.004,-0.0041 -0.006,-0.0072 z m -4.32842,0.01241 c -0.009,0.0843 0.004,0.150434 0.0264,0.02379 -0.006,-0.0069 -0.016,-0.01524 -0.0264,-0.02379 z" />
    </clipPath>
  </defs>
  <g
     inkscape:label="Layer 1"
     inkscape:groupmode="layer"
     id="layer1">
    <ellipse
       style="fill:none;stroke:#000000;stroke-width:0.529167"
       id="path126386"
       cx="58.595078"
       cy="107.09449"
       rx="13.268041"
       ry="25.685566" />
    <ellipse
       style="fill:none;stroke:#000000;stroke-width:0.529167"
       id="path126386-7"
       cx="185.9545"
       cy="106.56901"
       rx="13.268041"
       ry="25.685566" />
    <ellipse
       style="fill:none;stroke:#000000;stroke-width:0.529167"
       id="path126386-3"
       cx="103.76289"
       cy="107.84536"
       rx="13.268041"
       ry="25.685566"
       clip-path="url(#clipPath130858)" />
    <path
       style="fill:none;stroke:#000000;stroke-width:1.27597;stroke-linecap:butt;stroke-linejoin:miter;stroke-miterlimit:4;stroke-dasharray:none;stroke-opacity:1"
       d="M 95.398465,96.712426 112.80772,115.91644"
       id="path126523" />
    <path
       style="fill:none;stroke:#000000;stroke-width:0.46500002;stroke-linecap:butt;stroke-linejoin:miter;stroke-opacity:1;stroke-miterlimit:4;stroke-dasharray:none"
       d="M 95.398464,96.712425 112.80772,115.91644 135.74227,93.5567 117.03093,74.845359 Z"
       id="path128608"
       clip-path="url(#clipPath130632)" />
    <path
       style="fill:none;stroke:#000000;stroke-width:0.264583px;stroke-linecap:butt;stroke-linejoin:miter;stroke-opacity:1"
       d="M 117.03093,74.845359 V 45.927835 l 19.73196,19.731958 v 28.237113"
       id="path129358" />
    <path
       style="fill:none;stroke:#000000;stroke-width:0.264583px;stroke-linecap:butt;stroke-linejoin:miter;stroke-opacity:1"
       d="m 117.03093,45.927835 11.02218,-19.090976 19.86238,19.862384 -11.1526,19.316878"
       id="path131149" />
    <ellipse
       style="fill:none;stroke:#000000;stroke-width:0.465;stroke-miterlimit:4;stroke-dasharray:none"
       id="path131177"
       cx="130.62523"
       cy="45.374352"
       rx="0.2405621"
       ry="0.38923764" />
    <path
       style="fill:none;stroke:#000000;stroke-width:0.264583px;stroke-linecap:butt;stroke-linejoin:miter;stroke-opacity:1"
       d="M 61.343335,81.791113 C 77.670371,88.403381 78.365679,86.30042 90.210787,80.107178 112.49653,62.535589 101.89204,54.214961 114.02644,33.19757 c 7.10844,-15.896682 31.94076,-10.778664 35.36262,3.608431 2.01409,8.46819 1.16925,5.992446 6.9763,27.664639 3.34403,10.323553 16.87079,20.725304 29.8297,16.117661"
       id="path131409"
       sodipodi:nodetypes="cccscc" />
    <path
       style="fill:none;stroke:#000000;stroke-width:0.264583px;stroke-linecap:butt;stroke-linejoin:miter;stroke-opacity:1"
       d="m 59.418838,133.03084 c 15.961724,-2.30087 31.023021,-1.45024 45.706802,0.72169 27.79477,1.93892 54.79652,1.10229 81.30998,-1.44338"
       id="path134210"
       sodipodi:nodetypes="ccc" />
    <text
       xml:space="preserve"
       style="font-size:3.52777px;line-height:1.25;font-family:sans-serif;stroke-width:0.264583"
       x="100.31439"
       y="117.87543"
       id="text143053"><tspan
         sodipodi:role="line"
         style="stroke-width:0.264583"
         x="100.31439"
         y="117.87543"
         id="tspan146157">$P(0)$</tspan></text>
    <text
       xml:space="preserve"
       style="font-size:3.52777px;line-height:1.25;font-family:sans-serif;stroke-width:0.264583"
       x="113.78587"
       y="93.578651"
       id="text149861"><tspan
         sodipodi:role="line"
         id="tspan149859"
         style="stroke-width:0.264583"
         x="113.78587"
         y="93.578651">$F(1)$</tspan></text>
    <text
       xml:space="preserve"
       style="font-size:3.52777px;line-height:1.25;font-family:sans-serif;stroke-width:0.264583"
       x="122.68667"
       y="67.357391"
       id="text151449"><tspan
         sodipodi:role="line"
         id="tspan151447"
         style="stroke-width:0.264583"
         x="122.68667"
         y="67.357391">$F(2)$</tspan></text>
    <text
       xml:space="preserve"
       style="font-size:3.52777px;line-height:1.25;font-family:sans-serif;stroke-width:0.264583"
       x="131.10634"
       y="42.338928"
       id="text157933"><tspan
         sodipodi:role="line"
         id="tspan157931"
         style="stroke-width:0.264583"
         x="131.10634"
         y="42.338928">$x$</tspan></text>
    <text
       xml:space="preserve"
       style="font-size:3.52777px;line-height:1.25;font-family:sans-serif;stroke-width:0.264583"
       x="134.23364"
       y="51.720848"
       id="text159455"><tspan
         sodipodi:role="line"
         id="tspan159453"
         style="stroke-width:0.264583"
         x="134.23364"
         y="51.720848">$F(3)$</tspan></text>
    <text
       xml:space="preserve"
       style="font-size:3.52777px;line-height:1.25;font-family:sans-serif;stroke-width:0.264583"
       x="98.3899"
       y="99.833267"
       id="text167673"><tspan
         sodipodi:role="line"
         id="tspan167671"
         style="stroke-width:0.264583"
         x="98.3899"
         y="99.833267">$\lambda$</tspan></text>
    <path
       style="fill:none;stroke:#000000;stroke-width:0.765;stroke-linecap:butt;stroke-linejoin:miter;stroke-opacity:1;stroke-miterlimit:4;stroke-dasharray:none;marker-mid:url(#TriangleOutL);marker-end:url(#marker173264)"
       d="m 116.43206,145.05895 c 0,28.62689 0,28.62689 0,28.62689"
       id="path172927" />
    <path
       style="fill:none;stroke:#000000;stroke-width:0.264583px;stroke-linecap:butt;stroke-linejoin:miter;stroke-opacity:1"
       d="m 55.329282,189.08181 c 21.957412,-3.48309 43.388684,-2.23091 64.711208,0 22.65927,3.43966 44.53629,2.96808 65.91401,0"
       id="path173305"
       sodipodi:nodetypes="ccc" />
    <text
       xml:space="preserve"
       style="font-size:3.52777px;line-height:1.25;font-family:sans-serif;stroke-width:0.264583"
       x="116.19149"
       y="189.8035"
       id="text175916"><tspan
         sodipodi:role="line"
         id="tspan175914"
         style="stroke-width:0.264583"
         x="116.19149"
         y="189.8035">$\Delta$</tspan></text>
  </g>
</svg>
